<?xml version="1.0" standalone="no"?>
<!DOCTYPE svg PUBLIC "-//W3C//DTD SVG 20010904//EN"
 "http://www.w3.org/TR/2001/REC-SVG-20010904/DTD/svg10.dtd">
<svg version="1.0" xmlns="http://www.w3.org/2000/svg"
 width="748.000000pt" height="966.000000pt" viewBox="0 0 748.000000 966.000000"
 preserveAspectRatio="xMidYMid meet">

<g transform="translate(0.000000,966.000000) scale(0.100000,-0.100000)"
fill="#000000" stroke="none">
<path d="M4385 9260 c-16 -4 -48 -8 -70 -9 -44 -1 -181 -33 -230 -53 -16 -7
-66 -33 -110 -58 -44 -25 -91 -51 -105 -58 -31 -15 -60 -34 -144 -94 -37 -27
-79 -54 -95 -62 -41 -22 -179 -154 -187 -179 -3 -12 -12 -29 -19 -37 -7 -8
-17 -31 -22 -50 -6 -23 -20 -42 -41 -55 -19 -12 -35 -33 -41 -52 -5 -18 -19
-45 -30 -59 -12 -15 -21 -41 -21 -58 0 -17 -6 -41 -14 -52 -18 -26 -22 -125
-7 -183 9 -32 9 -47 0 -57 -6 -7 -13 -39 -16 -71 -4 -46 -2 -61 11 -72 9 -7
16 -19 16 -27 0 -20 -33 -88 -47 -97 -26 -16 -78 -237 -56 -237 14 0 37 28 65
79 13 23 28 44 33 45 5 0 13 -12 18 -29 5 -16 16 -38 25 -47 14 -16 13 -18
-16 -24 -43 -9 -58 -29 -78 -106 -21 -79 -11 -118 30 -118 20 0 25 6 28 32 3
32 28 53 28 24 0 -20 10 -20 38 0 l23 16 -7 -64 c-4 -34 -8 -65 -10 -67 -2 -3
-15 6 -29 19 -14 13 -28 20 -32 17 -6 -7 14 -53 39 -90 11 -15 10 -21 -9 -36
l-22 -18 24 -23 c14 -13 25 -29 25 -36 0 -20 -42 -44 -77 -44 -18 0 -33 -4
-33 -9 0 -11 55 -31 84 -31 12 0 27 -5 34 -12 17 -17 15 -150 -4 -283 -9 -60
-18 -141 -20 -178 -2 -37 -8 -76 -14 -87 -5 -10 -10 -34 -10 -52 0 -18 -7 -55
-15 -83 -9 -27 -13 -56 -10 -63 3 -8 -19 -64 -49 -125 -30 -62 -57 -127 -61
-144 -8 -38 15 -123 52 -198 31 -62 207 -315 284 -410 97 -119 371 -375 436
-408 55 -28 117 -29 177 -2 112 49 354 303 460 481 28 46 39 80 48 142 7 44
15 79 19 77 13 -9 30 -98 44 -242 8 -82 15 -149 15 -150 0 0 9 1 19 4 23 6 45
-29 36 -57 -5 -16 -2 -20 19 -20 14 0 26 -3 26 -7 1 -5 12 -21 26 -38 25 -29
26 -29 20 -5 -14 54 -26 154 -21 172 15 47 59 5 81 -78 38 -141 -16 -501 -157
-1054 -39 -151 -95 -372 -125 -490 -43 -170 -62 -227 -90 -272 -19 -32 -52
-85 -72 -119 -21 -34 -42 -62 -47 -63 -11 -1 -15 30 -45 339 -28 286 -52 424
-96 554 -60 179 -72 236 -60 283 14 53 80 128 111 128 17 0 46 -25 101 -85 43
-47 82 -85 86 -85 4 0 -11 28 -35 63 -23 34 -67 109 -96 167 -60 117 -120 184
-220 249 l-62 40 -56 -20 c-68 -23 -106 -24 -128 -3 -14 15 -18 14 -43 -2 -29
-19 -313 -231 -428 -319 -72 -55 -111 -68 -131 -42 -6 6 -57 98 -114 204 -56
106 -105 191 -106 189 -5 -5 24 -77 91 -226 82 -182 88 -192 124 -217 l34 -22
46 25 c26 13 67 38 92 54 53 35 51 34 116 49 56 13 105 1 133 -32 7 -10 18
-17 24 -17 26 0 197 -159 197 -183 0 -9 -11 -40 -24 -69 -145 -320 -197 -640
-146 -888 33 -154 36 -298 11 -403 -32 -133 -49 -160 -112 -172 -34 -6 -36 -5
-54 37 -10 24 -72 162 -138 308 -272 604 -347 901 -407 1600 -6 69 -10 143 -9
165 0 22 -4 72 -11 110 -13 80 -5 777 11 880 7 47 20 76 58 133 71 104 38 96
-86 -21 -210 -200 -240 -226 -300 -261 -41 -24 -82 -39 -125 -45 -144 -21
-256 -43 -313 -60 -33 -11 -83 -24 -111 -29 -27 -6 -90 -23 -140 -37 -49 -15
-120 -35 -159 -45 -64 -16 -230 -70 -280 -89 -36 -14 -89 -32 -125 -43 -19 -5
-75 -25 -123 -44 -48 -19 -111 -39 -140 -45 -103 -22 -142 -73 -186 -241 -17
-62 -44 -165 -60 -228 -17 -63 -31 -129 -31 -147 0 -42 -34 -187 -65 -277 -13
-39 -31 -105 -40 -146 -8 -41 -22 -100 -30 -130 -41 -160 -69 -308 -100 -525
-9 -60 -25 -173 -36 -250 -11 -77 -25 -189 -30 -250 -5 -60 -12 -117 -15 -125
-14 -35 -26 -488 -31 -1129 -6 -826 5 -996 81 -1354 l6 -27 2916 2 2916 3 34
65 c18 36 36 82 39 102 4 20 13 42 20 48 8 7 24 37 35 68 12 32 30 66 41 78
35 37 53 128 52 265 0 76 -6 141 -13 165 -17 49 -17 143 -2 404 27 474 27 479
-10 730 -16 104 -14 184 5 260 11 48 17 139 22 340 6 268 6 276 -16 335 -16
43 -24 95 -30 180 -10 165 -23 223 -71 318 -60 119 -60 124 -32 229 19 69 25
119 26 193 0 95 -2 106 -47 225 -26 69 -60 171 -75 228 -19 73 -38 118 -65
158 -40 58 -50 66 -130 99 -27 12 -95 48 -150 82 -92 55 -190 105 -350 177
-33 15 -67 31 -75 37 -38 23 -218 99 -285 120 -22 6 -54 23 -71 36 -17 12 -37
23 -45 23 -8 0 -27 9 -44 20 -16 12 -73 45 -125 75 -96 54 -126 81 -259 234
-29 34 -77 80 -106 102 -29 22 -56 47 -59 55 -4 10 22 41 76 92 68 65 168 195
168 219 0 4 8 16 19 27 10 12 34 50 53 86 54 100 74 130 97 147 43 30 100 114
121 180 13 38 26 73 30 78 4 6 11 25 15 44 4 19 16 48 26 65 10 17 19 39 19
50 0 10 16 33 36 51 38 35 53 79 54 157 0 47 63 164 92 174 35 11 128 114 128
142 0 14 26 52 73 104 22 26 27 40 27 84 0 29 5 56 10 59 6 3 10 15 10 26 0
11 10 23 23 28 42 16 49 35 45 115 -3 60 -8 79 -26 99 -12 13 -22 34 -22 46 0
14 -22 50 -51 85 -27 33 -80 101 -118 151 -37 49 -82 100 -100 112 -44 30 -79
98 -63 124 17 26 15 34 -12 66 -13 15 -38 63 -56 106 -38 91 -63 138 -105 194
-35 45 -98 103 -113 103 -14 0 -69 31 -170 97 l-82 55 -65 -7 c-47 -5 -75 -3
-107 9 -78 28 -302 44 -373 26z m-214 -1040 c17 0 39 4 49 10 24 13 48 3 56
-23 6 -19 8 -19 36 14 19 22 31 30 35 22 2 -7 11 -13 18 -13 21 0 60 -24 61
-37 2 -31 5 -35 18 -30 17 7 30 -19 14 -29 -12 -7 55 -44 81 -44 9 0 23 -5 31
-10 12 -8 13 -13 3 -29 -11 -18 -10 -22 8 -32 19 -10 20 -9 14 13 l-7 23 26
-24 c32 -30 75 -36 93 -13 12 15 13 13 7 -16 -6 -31 -4 -33 15 -27 28 8 53
-12 46 -36 -5 -14 1 -18 27 -21 23 -2 36 -10 43 -25 7 -16 15 -21 29 -17 10 3
16 2 13 -3 -8 -12 15 -39 41 -47 20 -7 27 -27 23 -63 -3 -24 35 -51 64 -45 42
8 29 -28 -21 -55 -40 -22 -41 -22 -77 -4 -29 15 -37 16 -37 5 0 -18 -16 -18
-23 0 -5 12 -12 13 -36 3 -25 -9 -33 -8 -49 6 -10 9 -26 17 -35 17 -9 0 -17 5
-17 11 0 7 -10 9 -25 7 -14 -3 -30 1 -36 8 -6 8 -19 14 -28 14 -9 0 -25 6 -36
13 -11 7 -36 14 -55 15 -19 2 -37 7 -40 13 -4 5 -24 10 -46 10 -21 0 -68 13
-104 28 -36 16 -90 37 -120 46 -51 17 -76 29 -173 84 -21 11 -44 21 -52 21
-10 0 -15 10 -15 30 0 21 5 30 16 30 9 0 18 9 21 19 6 23 53 35 53 15 0 -8 5
-14 11 -14 7 0 9 10 5 24 -4 16 0 30 9 40 21 20 19 36 -5 36 -13 0 -20 7 -20
20 0 11 -4 20 -9 20 -17 0 -7 43 11 48 10 2 18 11 18 18 0 10 6 8 20 -6 11
-11 33 -20 51 -20z m-196 -250 c3 -5 -1 -10 -9 -10 -9 0 -16 5 -16 10 0 6 4
10 9 10 6 0 13 -4 16 -10z m-715 -90 c0 -5 -2 -10 -4 -10 -3 0 -8 5 -11 10 -3
6 -1 10 4 10 6 0 11 -4 11 -10z m415 -170 c3 -5 -3 -10 -15 -10 -12 0 -18 5
-15 10 3 6 10 10 15 10 5 0 12 -4 15 -10z m357 -64 c13 -8 48 -21 78 -30 67
-19 101 -40 55 -33 -51 8 -299 49 -325 54 -25 5 -25 5 -5 20 25 19 163 11 197
-11z m1103 -7 c12 -19 -5 -23 -22 -6 -16 16 -16 17 -1 17 9 0 20 -5 23 -11z
m-1373 -108 c-2 -19 2 -22 18 -18 11 3 20 1 20 -4 0 -5 -4 -9 -10 -9 -5 0 -10
-7 -10 -15 0 -8 -4 -15 -10 -15 -5 0 -10 -3 -10 -7 0 -9 49 -33 67 -33 35 0
95 -45 114 -86 12 -24 27 -48 35 -55 8 -6 14 -18 14 -25 0 -8 7 -14 16 -14 8
0 12 -4 9 -10 -3 -5 3 -10 14 -10 11 0 25 -9 31 -20 l11 -20 21 20 c12 11 25
20 30 20 4 0 8 7 8 16 0 11 5 14 16 10 8 -3 23 -2 32 3 9 5 36 12 60 16 40 6
42 5 42 -17 0 -13 -6 -30 -12 -37 -10 -11 -10 -14 0 -18 22 -8 13 -21 -35 -49
l-48 -28 -132 22 c-199 34 -348 90 -357 135 -13 60 -13 86 -4 146 13 85 34
133 56 129 11 -3 16 -12 14 -27z m-157 -11 c7 0 15 6 18 13 2 6 8 8 13 4 4 -4
3 -17 -4 -27 -7 -11 -8 -20 -3 -20 4 0 11 -46 13 -102 l5 -102 43 -38 43 -38
-64 6 c-68 7 -131 37 -123 58 3 7 -7 18 -21 24 -30 14 -32 40 -4 76 11 14 18
30 14 36 -3 5 3 29 13 52 11 24 22 52 27 63 5 13 9 15 12 8 3 -7 11 -13 18
-13z m903 -258 c13 -17 22 -50 25 -89 3 -40 17 -89 40 -140 32 -73 40 -123 24
-150 -7 -10 -147 -30 -177 -25 -8 2 -22 4 -32 6 -9 1 -23 8 -31 15 -18 15 -62
17 -132 6 -43 -6 -53 -4 -73 13 -18 16 -22 26 -16 44 12 40 34 66 63 76 19 7
30 19 34 38 4 21 24 42 68 74 76 55 132 107 148 138 16 30 35 28 59 -6z m-772
-117 c-3 -8 -1 -15 4 -15 6 0 10 4 10 9 0 34 210 -27 224 -66 5 -13 0 -14 -29
-9 -22 4 -35 3 -35 -4 0 -5 -7 -10 -15 -10 -8 0 -15 -7 -15 -15 0 -9 -18 4
-44 31 -44 46 -46 46 -92 39 -34 -5 -48 -12 -51 -26 -7 -26 -21 -24 -29 6 -3
13 -15 27 -26 31 -26 8 -18 15 39 30 63 17 66 17 59 -1z m992 -164 c52 -28
136 -43 200 -37 46 5 62 4 52 -3 -17 -12 -10 -15 55 -26 22 -4 45 -11 51 -16
7 -5 16 -9 20 -8 22 4 54 -2 54 -10 0 -32 -160 -14 -298 33 -95 32 -162 62
-162 71 0 7 8 6 28 -4z m-633 -104 c19 -59 19 -63 3 -80 -10 -9 -24 -17 -32
-17 -23 0 -86 30 -107 51 -20 20 -20 21 -3 42 35 43 69 67 94 67 22 0 28 -8
45 -63z m105 -360 c41 -13 60 -26 60 -39 0 -19 -151 31 -158 51 -5 14 31 10
98 -12z m123 -39 c21 -11 21 -11 2 -18 -25 -9 -45 -2 -45 16 0 17 14 18 43 2z
m107 -3293 l-20 -60 5 45 c6 59 12 87 22 103 17 26 13 -29 -7 -88z m-2167
-1069 c32 -13 134 -41 262 -72 85 -20 97 -25 157 -76 57 -46 95 -63 166 -72
87 -11 306 -75 320 -93 15 -21 15 -91 1 -225 -14 -124 -22 -148 -49 -148 -12
0 -20 -6 -19 -12 2 -7 -5 -31 -15 -53 -9 -22 -15 -49 -12 -59 7 -28 -10 -55
-33 -49 -10 3 -22 0 -25 -6 -9 -14 -76 -15 -76 -1 0 14 -33 13 -48 -2 -10 -10
-15 -7 -27 9 -9 12 -22 29 -30 37 -8 8 -15 24 -15 36 0 11 -8 32 -17 46 -16
25 -16 27 6 43 17 13 22 25 19 52 -2 28 -7 33 -23 31 -39 -7 -128 -2 -140 8
-6 5 -14 7 -18 4 -3 -3 -13 6 -22 20 -10 14 -26 26 -36 26 -10 0 -21 5 -24 10
-3 6 -17 10 -31 10 -15 0 -24 6 -24 15 0 18 -11 19 -44 3 -21 -9 -29 -8 -43 4
-10 9 -34 19 -53 23 -44 9 -70 32 -70 61 0 37 -21 74 -44 75 -12 1 -39 3 -60
4 -24 1 -44 9 -52 20 -7 9 -27 18 -45 19 -23 1 -34 8 -40 23 -4 11 -21 29 -38
39 -16 10 -32 25 -35 33 -3 9 -11 24 -18 34 -11 14 -10 22 2 44 17 29 17 29
110 71 36 17 74 39 86 50 12 11 30 22 40 25 10 2 21 5 22 6 2 0 18 -5 35 -13z"/>
<path d="M4131 8181 c-7 -5 -12 -14 -10 -20 3 -6 9 -7 18 -2 7 5 12 14 10 20
-3 6 -9 7 -18 2z"/>
<path d="M4419 8040 c-9 -6 -8 -14 5 -31 9 -13 16 -31 16 -41 0 -10 3 -18 8
-19 90 -12 121 -4 104 27 -6 11 -14 28 -17 39 -7 19 -7 19 -16 -3 -11 -30 -33
-24 -34 9 0 19 -5 24 -27 25 -15 1 -32 -2 -39 -6z"/>
<path d="M3286 7445 c4 -8 8 -15 10 -15 2 0 4 7 4 15 0 8 -4 15 -10 15 -5 0
-7 -7 -4 -15z"/>
<path d="M4700 5320 c0 -5 5 -10 10 -10 6 0 10 5 10 10 0 6 -4 10 -10 10 -5 0
-10 -4 -10 -10z"/>
</g>
</svg>
